<?xml version="1.0" encoding="UTF-8" standalone="no"?>
<!-- Created with Inkscape (http://www.inkscape.org/) -->

<svg
   xmlns:dc="http://purl.org/dc/elements/1.1/"
   xmlns:cc="http://creativecommons.org/ns#"
   xmlns:rdf="http://www.w3.org/1999/02/22-rdf-syntax-ns#"
   xmlns:svg="http://www.w3.org/2000/svg"
   xmlns="http://www.w3.org/2000/svg"
   xmlns:sodipodi="http://sodipodi.sourceforge.net/DTD/sodipodi-0.dtd"
   xmlns:inkscape="http://www.inkscape.org/namespaces/inkscape"
   version="1.1"
   id="svg3713"
   width="200.00011"
   height="249.23824"
   viewBox="0 0 200.00011 249.23824"
   sodipodi:docname="Train.svg"
   inkscape:version="0.92.3 (2405546, 2018-03-11)">
  <metadata
     id="metadata3719">
    <rdf:RDF>
      <cc:Work
         rdf:about="">
        <dc:format>image/svg+xml</dc:format>
        <dc:type
           rdf:resource="http://purl.org/dc/dcmitype/StillImage" />
        <dc:title></dc:title>
      </cc:Work>
    </rdf:RDF>
  </metadata>
  <defs
     id="defs3717" />
  <sodipodi:namedview
     pagecolor="#ffffff"
     bordercolor="#666666"
     borderopacity="1"
     objecttolerance="10"
     gridtolerance="10"
     guidetolerance="10"
     inkscape:pageopacity="0"
     inkscape:pageshadow="2"
     inkscape:window-width="1920"
     inkscape:window-height="1137"
     id="namedview3715"
     showgrid="false"
     fit-margin-top="0"
     fit-margin-left="0"
     fit-margin-right="0"
     fit-margin-bottom="0"
     inkscape:zoom="2.93125"
     inkscape:cx="141.01258"
     inkscape:cy="116.49147"
     inkscape:window-x="-8"
     inkscape:window-y="-8"
     inkscape:window-maximized="1"
     inkscape:current-layer="svg3713" />
  <path
     style="fill:#000000;stroke-width:0.19476192"
     d="m 0,249.16038 c 0,-0.11035 51.74559,-53.80095 56.63593,-58.76469 2.37528,-2.41099 2.7662,-2.88884 2.45496,-3.00095 -4.59091,-1.65362 -8.05471,-3.91955 -11.47161,-7.50447 -2.46098,-2.58197 -4.1393,-5.02263 -5.93797,-8.6351 -2.23413,-4.48703 -3.38305,-8.22709 -4.22074,-13.73966 -0.313,-2.05958 -0.3445,-5.64648 -0.41062,-46.7339 -0.076,-47.263725 -0.0479,-49.074475 0.83377,-53.843875 2.69735,-14.59004 11.69752,-25.33543 23.53667,-28.10059 1.15711,-0.27024 2.97486,-0.34254 10.83628,-0.43096 l 9.44593,-0.10626 -1.23685,-0.45583 c -2.03824,-0.75113 -3.53885,-1.74936 -5.31794,-3.5375 -1.41195,-1.41912 -1.82868,-1.99164 -2.56556,-3.52478 -1.21529,-2.52854 -1.573,-4.30754 -1.44064,-7.16496 0.15334,-3.31081 1.20432,-6.0653799 3.22677,-8.4572999 4.9713,-5.87950001 13.57774,-6.87109 19.68002,-2.26743 2.56359,1.93401 4.50009,4.82913 5.28632,7.9032399 0.52041,2.03477 0.52041,5.12341 0,7.15819 -1.11764,4.36979 -4.73025,8.36693 -8.91651,9.86545 -0.66948,0.23965 -1.21725,0.46782 -1.21725,0.50702 0,0.0393 4.92991,0.0683 10.95534,0.0646 l 10.95535,-0.006 -1.39191,-0.54928 c -4.52283,-1.78479 -7.77936,-5.4451 -8.94303,-10.05184 -0.44942,-1.77923 -0.45378,-4.97708 -0.009,-6.81666 0.96092,-3.9765899 3.83221,-7.5809199 7.527,-9.4486599 2.11659,-1.06997001 3.76204,-1.44810001 6.32288,-1.45308001 2.4678,-0.005 3.62993,0.20483 5.63414,1.01623001 2.5983,1.0519 5.455,3.51589 6.90176,5.95302 2.21666,3.7339799 2.56758,8.7341999 0.90086,12.8360499 -1.46947,3.61645 -4.94312,6.85243 -8.76246,8.16294 -0.68765,0.23593 0.35209,0.28 8.86166,0.37545 9.60606,0.10777 9.64743,0.10997 11.50752,0.61362 4.8195,1.30492 8.35662,3.32331 12.0345,6.86724 6.18571,5.96045 10.25424,14.77047 11.30972,24.49034 0.28178,2.59476 0.28567,93.290015 0.004,95.935595 -0.80291,7.54453 -3.37552,14.49801 -7.53294,20.36078 -0.62008,0.87444 -2.13534,2.60203 -3.3672,3.83903 -3.04591,3.05857 -6.32378,5.22128 -9.73809,6.42504 -0.69631,0.24549 -1.33828,0.50885 -1.42669,0.5853 -0.0883,0.0764 13.14571,13.92434 29.40905,30.7732 16.26335,16.84887 29.60327,30.72023 29.64421,30.82527 0.0474,0.12164 -0.58894,0.14728 -1.75286,0.0706 -1.00501,-0.0662 -5.59594,-0.21989 -10.20204,-0.34157 -4.60614,-0.12172 -8.74723,-0.27763 -9.20249,-0.34649 -0.79117,-0.11966 -1.26884,-0.58302 -10.82641,-10.50153 l -9.99873,-10.37632 -20.60173,0.007 c -11.33092,0.004 -20.66566,0.0473 -20.7438,0.0957 -0.0782,0.0483 -13.54297,0.11284 -29.92187,0.14347 -16.37886,0.0304 -33.24835,0.0995 -37.48772,0.15306 l -7.70792,0.0974 -8.91708,9.2512 c -4.9044,5.08815 -9.34246,9.68519 -9.86231,10.21565 l -0.94518,0.96444 -7.74883,0.23485 c -4.26182,0.12913 -9.17299,0.28856 -10.91367,0.3543 -1.74068,0.0658 -3.16489,0.0722 -3.16489,0.0143 z m 145.43907,-34.46242 c 0.0271,-0.0245 -1.50332,-1.64743 -3.40091,-3.60649 l -3.45021,-3.56192 -38.66767,0.13952 -38.66768,0.13946 -1.13509,1.10212 c -0.6243,0.60617 -2.2006,2.23093 -3.5029,3.61057 l -2.36776,2.50844 45.57148,-0.14359 c 25.06428,-0.0789 45.5936,-0.1636 45.62074,-0.18811 z m -28.05363,-16.05795 12.50615,-0.11819 -4.81022,-5.01511 -4.81022,-5.0151 H 100.03312 79.79504 l -3.52248,3.65176 c -1.93742,2.00848 -4.17459,4.33102 -4.97156,5.16118 l -1.44903,1.50943 17.51366,-0.0279 c 9.6325,-0.0154 23.14143,-0.0811 30.01981,-0.14609 z M 75.39496,179.33483 c 1.79045,-0.33742 3.76442,-1.41034 5.15711,-2.80307 3.45417,-3.45413 3.8435,-8.69742 0.93329,-12.56884 -3.74626,-4.98363 -11.38813,-5.3314 -15.60476,-0.71014 -6.39293,7.00637 0.0333,17.86891 9.51436,16.08205 z m 58.06765,-0.45834 c 4.37015,-1.64819 7.10399,-6.08691 6.43017,-10.44015 -0.262,-1.69266 -1.26741,-3.86608 -2.35287,-5.08642 -3.98093,-4.47547 -11.29076,-4.47547 -15.26633,0 -1.05351,1.18594 -2.0171,3.22643 -2.31754,4.90762 -0.71297,3.98958 1.52922,8.22862 5.34973,10.11399 1.9715,0.97291 2.87324,1.16308 5.0873,1.07295 1.27097,-0.0518 2.11486,-0.20793 3.06954,-0.56799 z m 2.32554,-77.461 c 0.56765,-0.11677 1.75033,-0.55517 2.62823,-0.97422 2.81678,-1.344605 4.79345,-3.643365 5.76236,-6.701335 0.42668,-1.34657 0.43196,-1.51068 0.43196,-13.34119 0,-11.07408 -0.0271,-12.06603 -0.35812,-13.14643 -1.12518,-3.67166 -3.79376,-6.30609 -7.7245,-7.62565 -1.02295,-0.3434 -2.62768,-0.36204 -35.64143,-0.41396 -38.53675,-0.0606 -36.25599,-0.13519 -39.14714,1.28004 -2.78424,1.36292 -5.10699,4.34763 -5.75195,7.39113 -0.41475,1.95717 -0.40748,23.10393 0.008,25.07701 0.87114,4.13082 4.41924,7.637885 8.56741,8.468275 1.25571,0.25138 70.00024,0.23817 71.22459,-0.0137 z M 115.90624,48.065145 c 1.04225,-0.28951 1.95918,-0.98025 2.45963,-1.85287 0.43105,-0.75165 0.44205,-0.8996 0.39249,-5.2839 l -0.0509,-4.51061 -0.59465,-0.73426 c -0.32708,-0.40384 -0.94056,-0.9157 -1.36336,-1.13748 -0.75577,-0.39648 -1.02818,-0.40422 -16.25222,-0.46151 -10.79816,-0.0406 -15.70555,0.006 -16.21716,0.15486 -0.85002,0.24696 -1.98573,1.18098 -2.39252,1.96766 -0.22232,0.42983 -0.28207,1.48849 -0.28148,4.98621 0,4.02813 0.0352,4.49719 0.37292,5.05091 0.47401,0.77735 1.47854,1.54155 2.35299,1.79004 0.93468,0.2656 30.62481,0.2947 31.57435,0.031 z"
     id="path3723"
     inkscape:connector-curvature="0" />
</svg>
